# xmcd CD database file
#
# Track frame offsets:
#	150
#	11673
#	24235
#	43620
#	59511
#
# Disc length: 982 seconds
#
# Revision: 0
# Processed by: cddbd v1.4PL0 Copyright (c) Steve Scherf et al.
# Submitted via: CDex 1.50beta8
#
DISCID=3603d405
DTITLE=Bluetones - Bluetones
DYEAR=2001
DGENRE=Jazz
TTITLE0=ACome back home
TTITLE1=Four reasons to drink
TTITLE2=For the arm and the best
TTITLE3=Walking with two different shoes
TTITLE4=Single brain
EXTD=YEAR: 2001
EXTT0=
EXTT1=
EXTT2=
EXTT3=
EXTT4=
PLAYORDER=
